<?xml version="1.0" standalone="no"?>
<!DOCTYPE svg PUBLIC "-//W3C//DTD SVG 20010904//EN"
 "http://www.w3.org/TR/2001/REC-SVG-20010904/DTD/svg10.dtd">
<svg version="1.0" xmlns="http://www.w3.org/2000/svg"
 width="216.000000pt" height="69.000000pt" viewBox="0 0 216.000000 69.000000"
 preserveAspectRatio="xMidYMid meet">

<g transform="translate(0.000000,69.000000) scale(0.100000,-0.100000)"
fill="#000000" stroke="none">
<path d="M1531 638 c-83 -13 -143 -63 -188 -158 -36 -75 -38 -202 -5 -270 27
-56 80 -112 130 -136 57 -29 183 -25 248 7 l49 24 5 83 c5 76 7 85 30 98 22
12 13 13 -90 13 -99 1 -112 -1 -90 -12 23 -12 25 -18 28 -97 2 -71 0 -87 -14
-97 -48 -35 -134 3 -169 72 -24 49 -34 231 -16 310 32 144 170 181 256 68 20
-26 38 -57 41 -70 13 -51 24 -18 24 72 0 52 -3 95 -6 95 -3 0 -14 -10 -23 -21
-17 -21 -19 -21 -52 -6 -58 27 -102 33 -158 25z"/>
<path d="M955 631 c-72 -18 -131 -79 -165 -167 -18 -49 -21 -72 -17 -136 9
-136 73 -234 171 -263 62 -19 80 -19 142 0 209 62 232 445 32 550 -33 18 -123
27 -163 16z m111 -39 c51 -40 59 -76 59 -247 0 -174 -7 -201 -61 -244 -35 -28
-66 -26 -103 4 -47 40 -65 110 -65 245 1 175 41 259 124 259 14 0 35 -7 46
-17z"/>
<path d="M360 617 c14 -6 28 -16 32 -22 4 -5 8 -118 8 -251 0 -251 -2 -264
-44 -264 -10 0 -16 -3 -13 -6 8 -8 216 -8 224 0 4 3 -3 6 -15 6 -33 0 -42 30
-42 148 l0 109 30 -5 c38 -5 80 -54 80 -93 0 -16 5 -29 10 -29 6 0 10 51 10
134 0 79 -4 137 -10 141 -6 3 -10 -5 -10 -19 0 -53 -32 -90 -85 -98 -19 -3
-20 3 -23 115 l-3 117 53 0 c80 0 119 -24 140 -85 l16 -50 1 83 1 82 -192 -1
c-154 0 -188 -3 -168 -12z"/>
</g>
</svg>
